<svg width="193" height="53" viewBox="0 0 193 53" fill="none" xmlns="http://www.w3.org/2000/svg">
<circle cx="23" cy="30" r="23" fill="white"/>
<path d="M70.28 38.204C67.9227 38.204 65.7807 37.6827 63.854 36.64C61.95 35.5747 60.454 34.124 59.366 32.288C58.3007 30.452 57.768 28.3893 57.768 26.1C57.768 23.8107 58.3007 21.748 59.366 19.912C60.454 18.076 61.95 16.6367 63.854 15.594C65.7807 14.5287 67.9227 13.996 70.28 13.996C72.6373 13.996 74.7567 14.5173 76.638 15.56C78.542 16.6027 80.038 18.0533 81.126 19.912C82.214 21.748 82.758 23.8107 82.758 26.1C82.758 28.3893 82.214 30.4633 81.126 32.322C80.038 34.158 78.542 35.5973 76.638 36.64C74.7567 37.6827 72.6373 38.204 70.28 38.204ZM70.28 35.96C72.1613 35.96 73.8613 35.5407 75.38 34.702C76.8987 33.8407 78.0887 32.662 78.95 31.166C79.8113 29.6473 80.242 27.9587 80.242 26.1C80.242 24.2413 79.8113 22.564 78.95 21.068C78.0887 19.5493 76.8987 18.3707 75.38 17.532C73.8613 16.6707 72.1613 16.24 70.28 16.24C68.3987 16.24 66.6873 16.6707 65.146 17.532C63.6273 18.3707 62.426 19.5493 61.542 21.068C60.6807 22.564 60.25 24.2413 60.25 26.1C60.25 27.9587 60.6807 29.6473 61.542 31.166C62.426 32.662 63.6273 33.8407 65.146 34.702C66.6873 35.5407 68.3987 35.96 70.28 35.96ZM97.1015 19.98C98.7788 19.98 100.297 20.3653 101.657 21.136C103.017 21.884 104.083 22.9493 104.853 24.332C105.624 25.7147 106.009 27.29 106.009 29.058C106.009 30.826 105.624 32.4013 104.853 33.784C104.083 35.1667 103.017 36.2433 101.657 37.014C100.297 37.7847 98.7788 38.17 97.1015 38.17C95.6055 38.17 94.2568 37.8527 93.0555 37.218C91.8768 36.5833 90.9248 35.6653 90.1995 34.464V38H87.8875V12.772H90.3015V23.516C91.0495 22.36 92.0015 21.4873 93.1575 20.898C94.3362 20.286 95.6508 19.98 97.1015 19.98ZM96.9315 36.028C98.1782 36.028 99.3115 35.7447 100.331 35.178C101.351 34.5887 102.145 33.7613 102.711 32.696C103.301 31.6307 103.595 30.418 103.595 29.058C103.595 27.698 103.301 26.4853 102.711 25.42C102.145 24.3547 101.351 23.5387 100.331 22.972C99.3115 22.3827 98.1782 22.088 96.9315 22.088C95.6622 22.088 94.5175 22.3827 93.4975 22.972C92.5002 23.5387 91.7068 24.3547 91.1175 25.42C90.5508 26.4853 90.2675 27.698 90.2675 29.058C90.2675 30.418 90.5508 31.6307 91.1175 32.696C91.7068 33.7613 92.5002 34.5887 93.4975 35.178C94.5175 35.7447 95.6622 36.028 96.9315 36.028ZM115.724 38.17C114.274 38.17 112.88 37.966 111.542 37.558C110.228 37.1273 109.196 36.5947 108.448 35.96L109.536 34.056C110.284 34.6453 111.225 35.1327 112.358 35.518C113.492 35.8807 114.67 36.062 115.894 36.062C117.526 36.062 118.728 35.8127 119.498 35.314C120.292 34.7927 120.688 34.0673 120.688 33.138C120.688 32.4807 120.473 31.9707 120.042 31.608C119.612 31.2227 119.068 30.9393 118.41 30.758C117.753 30.554 116.88 30.3613 115.792 30.18C114.342 29.908 113.174 29.636 112.29 29.364C111.406 29.0693 110.647 28.582 110.012 27.902C109.4 27.222 109.094 26.2813 109.094 25.08C109.094 23.584 109.718 22.36 110.964 21.408C112.211 20.456 113.945 19.98 116.166 19.98C117.322 19.98 118.478 20.1387 119.634 20.456C120.79 20.7507 121.742 21.1473 122.49 21.646L121.436 23.584C119.963 22.564 118.206 22.054 116.166 22.054C114.625 22.054 113.458 22.326 112.664 22.87C111.894 23.414 111.508 24.128 111.508 25.012C111.508 25.692 111.724 26.236 112.154 26.644C112.608 27.052 113.163 27.358 113.82 27.562C114.478 27.7433 115.384 27.936 116.54 28.14C117.968 28.412 119.113 28.684 119.974 28.956C120.836 29.228 121.572 29.6927 122.184 30.35C122.796 31.0073 123.102 31.914 123.102 33.07C123.102 34.634 122.445 35.8807 121.13 36.81C119.838 37.7167 118.036 38.17 115.724 38.17ZM134.977 38.17C133.209 38.17 131.623 37.7847 130.217 37.014C128.835 36.2433 127.747 35.1667 126.953 33.784C126.16 32.3787 125.763 30.8033 125.763 29.058C125.763 27.3127 126.16 25.7487 126.953 24.366C127.747 22.9833 128.835 21.9067 130.217 21.136C131.623 20.3653 133.209 19.98 134.977 19.98C136.519 19.98 137.89 20.286 139.091 20.898C140.315 21.4873 141.279 22.36 141.981 23.516L140.179 24.74C139.59 23.856 138.842 23.1987 137.935 22.768C137.029 22.3147 136.043 22.088 134.977 22.088C133.685 22.088 132.518 22.3827 131.475 22.972C130.455 23.5387 129.651 24.3547 129.061 25.42C128.495 26.4853 128.211 27.698 128.211 29.058C128.211 30.4407 128.495 31.6647 129.061 32.73C129.651 33.7727 130.455 34.5887 131.475 35.178C132.518 35.7447 133.685 36.028 134.977 36.028C136.043 36.028 137.029 35.8127 137.935 35.382C138.842 34.9513 139.59 34.294 140.179 33.41L141.981 34.634C141.279 35.79 140.315 36.674 139.091 37.286C137.867 37.8753 136.496 38.17 134.977 38.17ZM162.839 20.116V38H160.527V34.736C159.893 35.824 159.02 36.674 157.909 37.286C156.799 37.8753 155.529 38.17 154.101 38.17C151.767 38.17 149.919 37.524 148.559 36.232C147.222 34.9173 146.553 33.002 146.553 30.486V20.116H148.967V30.248C148.967 32.1293 149.432 33.5573 150.361 34.532C151.291 35.5067 152.617 35.994 154.339 35.994C156.221 35.994 157.705 35.4273 158.793 34.294C159.881 33.138 160.425 31.54 160.425 29.5V20.116H162.839ZM171.912 23.618C172.479 22.4167 173.318 21.51 174.428 20.898C175.562 20.286 176.956 19.98 178.61 19.98V22.326L178.032 22.292C176.151 22.292 174.678 22.87 173.612 24.026C172.547 25.182 172.014 26.8027 172.014 28.888V38H169.6V20.116H171.912V23.618ZM189.204 19.98C191.539 19.98 193.329 20.5693 194.576 21.748C195.823 22.904 196.446 24.6267 196.446 26.916V38H194.134V35.212C193.59 36.1413 192.785 36.8667 191.72 37.388C190.677 37.9093 189.431 38.17 187.98 38.17C185.985 38.17 184.399 37.694 183.22 36.742C182.041 35.79 181.452 34.532 181.452 32.968C181.452 31.4493 181.996 30.2253 183.084 29.296C184.195 28.3667 185.951 27.902 188.354 27.902H194.032V26.814C194.032 25.2727 193.601 24.1053 192.74 23.312C191.879 22.496 190.621 22.088 188.966 22.088C187.833 22.088 186.745 22.2807 185.702 22.666C184.659 23.0287 183.764 23.5387 183.016 24.196L181.928 22.394C182.835 21.6233 183.923 21.034 185.192 20.626C186.461 20.1953 187.799 19.98 189.204 19.98ZM188.354 36.266C189.714 36.266 190.881 35.96 191.856 35.348C192.831 34.7133 193.556 33.8067 194.032 32.628V29.704H188.422C185.362 29.704 183.832 30.7693 183.832 32.9C183.832 33.9427 184.229 34.77 185.022 35.382C185.815 35.9713 186.926 36.266 188.354 36.266Z" fill="white"/>
<circle cx="20.5" cy="31.5" r="6.5" stroke="black" stroke-width="2" stroke-linecap="round" stroke-linejoin="round"/>
<path d="M17.5449 31.5C17.5449 29.868 18.8679 28.545 20.4999 28.545" stroke="black" stroke-width="2" stroke-linecap="round" stroke-linejoin="round"/>
<path fill-rule="evenodd" clip-rule="evenodd" d="M34 19H32C31.448 19 31 19.448 31 20V22H35V20C35 19.448 34.552 19 34 19Z" stroke="black" stroke-width="2" stroke-linecap="round" stroke-linejoin="round"/>
<path fill-rule="evenodd" clip-rule="evenodd" d="M35 22H27.5L25 17H15L12.5 22H11C9.895 22 9 22.895 9 24V40C9 41.105 9.895 42 11 42H35C36.105 42 37 41.105 37 40V24C37 22.895 36.105 22 35 22Z" stroke="black" stroke-width="2" stroke-linecap="round" stroke-linejoin="round"/>
<path d="M17 21H23" stroke="black" stroke-width="2" stroke-linecap="round" stroke-linejoin="round"/>
<path d="M32 26H34" stroke="black" stroke-width="2" stroke-linecap="round" stroke-linejoin="round"/>
</svg>
